# xmcd
#
# Track frame offsets:
#	150
#	13276
#	27872
#	46406
#	58014
#	75215
#	90922
#	102673
#	117022
#	128364
#	139259
#	149487
#	163957
#	183051
#	193494
#	205070
#	215330
#	231366
#	243862
#	256305
#	274455
#	286420
#	304201
#	315113
#	328311
#
# Disc length: 4559 seconds
#
# Revision: 1
# Processed by: cddbd v1.4PL0 Copyright (c) Steve Scherf et al.
# Submitted via: audiograbber 1.81.02
#
DISCID=6b11cd19
DTITLE=Fausto Papetti - The Best
DYEAR=2003
DGENRE=Blues
TTITLE0=Love Story
TTITLE1=Theme From Paradise
TTITLE2=Samba Pa Ti
TTITLE3=Giochi Proibiti
TTITLE4=Je T'aime Moi Non Plus
TTITLE5=Sorry Seems To Be The Hardest Word
TTITLE6=Strangers In The Night
TTITLE7=I Just Called To Say I Love You
TTITLE8=Song Sung Blue
TTITLE9=The Shadow Of Tou Smile
TTITLE10=More
TTITLE11=Africa
TTITLE12=Reality
TTITLE13=El Bimbo
TTITLE14=Georgia On My Mind
TTITLE15=Danny Boy
TTITLE16=Petite Fleur
TTITLE17=Misty
TTITLE18=Love Me Tender
TTITLE19=The House Of The Rising Sun
TTITLE20=Cabaret
TTITLE21=Sunday Party
TTITLE22=In A Sentimental Mood
TTITLE23=A Whiter Shade Of Pale
TTITLE24=Giu' La Testa
EXTD=Fausto Papetti,\nInstrumental Gold Collection on two CD,\nDisk -2
EXTT0=
EXTT1=
EXTT2=
EXTT3=
EXTT4=
EXTT5=
EXTT6=
EXTT7=
EXTT8=
EXTT9=
EXTT10=
EXTT11=
EXTT12=
EXTT13=
EXTT14=
EXTT15=
EXTT16=
EXTT17=
EXTT18=
EXTT19=
EXTT20=
EXTT21=
EXTT22=
EXTT23=
EXTT24=
PLAYORDER=
